<svg xmlns="http://www.w3.org/2000/svg" viewBox="0 0 464.13 37.38"><defs><style>.cls-1{fill:#fff;}</style></defs><title>Asset 1</title><g id="Layer_2" data-name="Layer 2"><g id="Layer_1-2" data-name="Layer 1"><path class="cls-1" d="M0,.48H6.05L14.24,20a19.74,19.74,0,0,1,.8,2q.38,1.1.7,2.12.38,1.18.7,2.36.32-1.12.64-2.3.27-1,.67-2.12A21.14,21.14,0,0,1,18.58,20L26.67.48h5.52L16.65,37.27H16Z"/><path class="cls-1" d="M49.05.48h5.62V36.9H49.05Z"/><path class="cls-1" d="M84.18,37.38a17.38,17.38,0,0,1-4.66-.58,13.81,13.81,0,0,1-3.72-1.62A12.58,12.58,0,0,1,73,32.79a13.14,13.14,0,0,1-1.93-2.91l4.66-2.57a13.12,13.12,0,0,0,3.16,3.61,8.21,8.21,0,0,0,5.19,1.47A7.23,7.23,0,0,0,88.62,31a4.35,4.35,0,0,0,1.77-3.62,4.94,4.94,0,0,0-.4-2.06,5.06,5.06,0,0,0-1.18-1.61,10.19,10.19,0,0,0-1.9-1.37,25.94,25.94,0,0,0-2.62-1.29L81.88,20a26.33,26.33,0,0,1-3.56-1.85,11.9,11.9,0,0,1-2.68-2.25A9.07,9.07,0,0,1,73.95,13a10.74,10.74,0,0,1-.59-3.7,9.08,9.08,0,0,1,.75-3.73A8.78,8.78,0,0,1,76.2,2.68,9.61,9.61,0,0,1,79.44.75a12,12,0,0,1,4.15-.7,12.3,12.3,0,0,1,6.13,1.41,11,11,0,0,1,4.15,4.38L89.43,8.57A7.9,7.9,0,0,0,87,5.89,6.23,6.23,0,0,0,83.59,5a4.86,4.86,0,0,0-3.45,1.18,4,4,0,0,0-1.26,3,4.22,4.22,0,0,0,1.23,3.21,13.59,13.59,0,0,0,4,2.35l2.36,1.07A35.27,35.27,0,0,1,90.58,18a13.42,13.42,0,0,1,3,2.43,9.17,9.17,0,0,1,1.82,3A11.27,11.27,0,0,1,96,27.33a9.89,9.89,0,0,1-.88,4.28,8.9,8.9,0,0,1-2.46,3.15,11,11,0,0,1-3.75,2A16.1,16.1,0,0,1,84.18,37.38Z"/><path class="cls-1" d="M113.79.48h5.62V36.9h-5.62Z"/><path class="cls-1" d="M147.2,5.46H136.39v-5h27.26v5H152.83V36.9H147.2Z"/><path class="cls-1" d="M211.73,15.64a14,14,0,0,1-1.15-1.31q-.56-.72-1.1-1.31t-1.18-1.45q.05.86.16,1.77.11.75.16,1.69t.05,1.79V36.9h-5.25V.11h.75l20.08,21.58q.53.59,1.1,1.31t1.1,1.31q.59.75,1.18,1.45-.11-.91-.22-1.87a16.66,16.66,0,0,1-.13-1.71q0-.91,0-1.66V.48h5.25V37.27h-.7Z"/><path class="cls-1" d="M259.83,20.88a10.79,10.79,0,0,1-4.1-.78,10.08,10.08,0,0,1-5.58-5.47,10.48,10.48,0,0,1-.82-4.19,10.49,10.49,0,0,1,.82-4.19A10.08,10.08,0,0,1,255.74.78a11.14,11.14,0,0,1,8.18,0,10.12,10.12,0,0,1,5.56,5.47,10.5,10.5,0,0,1,.82,4.19,10.5,10.5,0,0,1-.82,4.19,10.12,10.12,0,0,1-5.56,5.47A10.68,10.68,0,0,1,259.83,20.88Zm0-4a6.1,6.1,0,0,0,2.47-.49A5.86,5.86,0,0,0,264.24,15a6.22,6.22,0,0,0,1.27-2,7,7,0,0,0,.46-2.55,7,7,0,0,0-.46-2.55,6.22,6.22,0,0,0-1.27-2,5.87,5.87,0,0,0-1.94-1.36A6.09,6.09,0,0,0,259.83,4a6.18,6.18,0,0,0-2.48.49,5.84,5.84,0,0,0-2,1.36,6.21,6.21,0,0,0-1.27,2,7,7,0,0,0-.46,2.55,7,7,0,0,0,.46,2.55,6.21,6.21,0,0,0,1.27,2,5.83,5.83,0,0,0,2,1.36A6.19,6.19,0,0,0,259.83,16.88Z"/><path class="cls-1" d="M312.41,36.9h-6.53l-6.53-9.59q-.75.11-1.53.16c-.52,0-1,.05-1.53.05h-3.43V36.9h-5.68V.48h9.1a21.49,21.49,0,0,1,6.69,1,13.71,13.71,0,0,1,4.93,2.73,11.64,11.64,0,0,1,3,4.28,14.54,14.54,0,0,1,1,5.62,13,13,0,0,1-1.85,7.12,11.79,11.79,0,0,1-5.44,4.44ZM296.08,22.65q5.41,0,7.76-2.25a8.31,8.31,0,0,0,2.36-6.32,8.34,8.34,0,0,0-2.38-6.37q-2.38-2.25-7.74-2.25h-3.21V22.65Z"/><path class="cls-1" d="M330.29.48h10a23.11,23.11,0,0,1,8,1.31,17.8,17.8,0,0,1,6.13,3.7,16.31,16.31,0,0,1,3.94,5.76,19.34,19.34,0,0,1,1.39,7.44,19.28,19.28,0,0,1-1.39,7.47,16.37,16.37,0,0,1-3.94,5.73,17.76,17.76,0,0,1-6.13,3.69,23.08,23.08,0,0,1-8,1.31h-10Zm9.64,31.43a17.84,17.84,0,0,0,6.16-1,11.67,11.67,0,0,0,4.36-2.73A10.92,10.92,0,0,0,353,24a16.41,16.41,0,0,0,.83-5.33,16.42,16.42,0,0,0-.83-5.33,10.94,10.94,0,0,0-2.57-4.2,11.66,11.66,0,0,0-4.36-2.73,17.84,17.84,0,0,0-6.16-1h-4V31.92Z"/><path class="cls-1" d="M377.74.48h5.62V36.9h-5.62Z"/><path class="cls-1" d="M420,37.38A19.17,19.17,0,0,1,412.76,36a17.94,17.94,0,0,1-5.94-3.88,18.49,18.49,0,0,1-4-5.92,18.77,18.77,0,0,1-1.47-7.5,18.78,18.78,0,0,1,1.47-7.5,17.86,17.86,0,0,1,9.93-9.75A19.14,19.14,0,0,1,420,.05q9.75,0,14.57,7.23l-4.34,3.11a11.41,11.41,0,0,0-4.1-3.83A12.41,12.41,0,0,0,420,5.14a13,13,0,0,0-5.19,1A12.15,12.15,0,0,0,410.78,9a13.12,13.12,0,0,0-2.68,4.31,14.77,14.77,0,0,0-1,5.38,14.78,14.78,0,0,0,1,5.38,13.12,13.12,0,0,0,2.68,4.31,12.46,12.46,0,0,0,4.07,2.86,12.7,12.7,0,0,0,5.19,1,12.26,12.26,0,0,0,6.4-1.55,13.7,13.7,0,0,0,4.37-4.18l4.34,3.05a17.2,17.2,0,0,1-6.19,5.7A18.31,18.31,0,0,1,420,37.38Z"/><rect class="cls-1" x="449.02" y="0.05" width="4.7" height="16.27"/><rect class="cls-1" x="459.43" y="0.05" width="4.7" height="16.27"/></g></g></svg>